<svg width="32" height="32" fill="none" xmlns="http://www.w3.org/2000/svg"><path d="M28 32H16a1.333 1.333 0 0 1-1.333-1.333V28A1.333 1.333 0 0 1 16 26.667h12A1.333 1.333 0 0 1 29.333 28v2.667A1.334 1.334 0 0 1 28 32Z" fill="#D6B1FF"/><path d="M28 0H4a1.333 1.333 0 0 0-1.333 1.333V4A1.333 1.333 0 0 0 4 5.333h24A1.333 1.333 0 0 0 29.333 4V1.333A1.333 1.333 0 0 0 28 0Z" fill="#2EC5CE"/><path d="M28 8H4a1.333 1.333 0 0 0-1.333 1.333v13.334A1.333 1.333 0 0 0 4 24h24a1.333 1.333 0 0 0 1.333-1.333V9.333A1.333 1.333 0 0 0 28 8Z" fill="#8C30F5"/></svg>