<svg fill="none" viewBox="0 0 85 28" xmlns="http://www.w3.org/2000/svg"><g clip-path="url(#a)"><path d="M36.246 14.359c0 3.887-3.085 6.75-6.871 6.75-3.786 0-6.872-2.863-6.872-6.75 0-3.914 3.086-6.75 6.872-6.75s6.871 2.836 6.871 6.75zm-3.008 0c0-2.429-1.788-4.09-3.863-4.09s-3.864 1.661-3.864 4.09c0 2.404 1.788 4.09 3.864 4.09s3.863-1.689 3.863-4.09z" fill="#EA4335"/><path d="M51.07 14.359c0 3.887-3.085 6.75-6.871 6.75s-6.872-2.863-6.872-6.75c0-3.91 3.086-6.75 6.872-6.75s6.871 2.836 6.871 6.75zm-3.008 0c0-2.429-1.788-4.09-3.863-4.09s-3.864 1.661-3.864 4.09c0 2.404 1.788 4.09 3.864 4.09s3.863-1.689 3.863-4.09z" fill="#FBBC05"/><path d="M65.276 8.017v12.119c0 4.985-2.983 7.02-6.51 7.02-3.32 0-5.318-2.187-6.072-3.977l2.62-1.074c.466 1.098 1.608 2.395 3.449 2.395 2.257 0 3.656-1.373 3.656-3.957v-.97h-.105c-.673.818-1.97 1.533-3.607 1.533-3.425 0-6.562-2.94-6.562-6.723 0-3.81 3.137-6.775 6.562-6.775 1.634 0 2.931.716 3.607 1.51h.105V8.02h2.857v-.003zm-2.643 6.367c0-2.377-1.61-4.115-3.657-4.115-2.075 0-3.814 1.738-3.814 4.115 0 2.352 1.739 4.066 3.814 4.066 2.047 0 3.656-1.714 3.656-4.066z" fill="#4285F4"/><path d="M69.985.913v19.783h-2.934V.913h2.934z" fill="#34A853"/><path d="m81.418 16.581 2.335 1.534c-.754 1.099-2.57 2.992-5.707 2.992-3.891 0-6.797-2.965-6.797-6.75 0-4.015 2.93-6.751 6.46-6.751 3.555 0 5.293 2.788 5.862 4.294l.311.767-9.156 3.738c.7 1.354 1.791 2.045 3.32 2.045 1.531 0 2.594-.743 3.372-1.869zm-7.186-2.429 6.12-2.504c-.336-.844-1.349-1.43-2.541-1.43-1.529 0-3.656 1.33-3.58 3.934z" fill="#EA4335"/><path d="M11.398 12.603V9.739h9.793c.096.5.145 1.09.145 1.729 0 2.149-.596 4.806-2.517 6.699-1.868 1.917-4.256 2.94-7.418 2.94C5.54 21.107.611 16.4.611 10.625.611 4.848 5.54.143 11.401.143c3.243 0 5.553 1.253 7.288 2.888l-2.05 2.02c-1.245-1.15-2.931-2.044-5.241-2.044-4.28 0-7.628 3.4-7.628 7.617a7.573 7.573 0 0 0 7.628 7.618c2.776 0 4.357-1.099 5.37-2.097.822-.81 1.362-1.966 1.575-3.546l-6.945.003z" fill="#4285F4"/></g><defs><clipPath id="a"><path transform="translate(.5)" fill="#fff" d="M0 0h84v28H0z"/></clipPath></defs></svg>