<svg fill="none" viewBox="0 0 91 28" xmlns="http://www.w3.org/2000/svg"><g clip-path="url(#a)"><path d="M26.3 19.844c-.141-.341-.274-.7-.415-1.006l-.653-1.461-.026-.027c-1.941-4.2-4.015-8.47-6.212-12.67l-.088-.175c-.22-.41-.441-.866-.67-1.286-.283-.499-.557-1.032-1.007-1.54-.438-.53-.99-.959-1.616-1.252a4.722 4.722 0 0 0-4.003 0 4.67 4.67 0 0 0-1.616 1.252c-.415.508-.723 1.041-1.006 1.54-.22.455-.441.901-.67 1.313l-.089.175c-2.161 4.2-4.27 8.47-6.211 12.67l-.053.052c-.194.455-.424.928-.644 1.435a16.71 16.71 0 0 0-.424 1.006 5.904 5.904 0 0 0 .854 5.835A5.995 5.995 0 0 0 4.2 27.55c.964.393 2.015.53 3.049.398a7.434 7.434 0 0 0 2.806-.963c1.147-.639 2.25-1.566 3.485-2.905 1.235 1.339 2.365 2.266 3.485 2.914a7.441 7.441 0 0 0 3.547 1.006 6.02 6.02 0 0 0 3.941-1.445 5.928 5.928 0 0 0 2.015-3.656 5.158 5.158 0 0 0-.23-3.063v.01zm-12.671 1.452c-1.518-1.924-2.506-3.692-2.841-5.206a4.512 4.512 0 0 1-.088-1.715c.061-.446.229-.84.458-1.172.53-.761 1.456-1.234 2.471-1.234.482-.015.96.09 1.391.304s.802.53 1.08.921c.229.35.397.735.45 1.181.088.508.053 1.094-.089 1.715-.335 1.488-1.323 3.273-2.832 5.207zm11.241 1.296c-.1.72-.39 1.403-.838 1.979a4.196 4.196 0 0 1-1.72 1.302c-.672.28-1.413.359-2.136.28a5.557 5.557 0 0 1-2.135-.735 13.769 13.769 0 0 1-3.203-2.713c1.852-2.275 2.973-4.348 3.397-6.195.203-.875.23-1.662.14-2.388a4.814 4.814 0 0 0-.758-1.925 4.718 4.718 0 0 0-1.73-1.488 4.763 4.763 0 0 0-2.232-.507c-1.632 0-3.088.752-3.97 1.986a4.51 4.51 0 0 0-.75 1.934 5.713 5.713 0 0 0 .14 2.388c.424 1.846 1.571 3.946 3.398 6.213a12.617 12.617 0 0 1-3.203 2.73c-.732.42-1.43.639-2.135.726a4.226 4.226 0 0 1-3.086-.823 4.158 4.158 0 0 1-1.608-2.738c-.089-.7-.027-1.4.255-2.188.089-.28.221-.56.362-.892.194-.455.424-.928.644-1.4l.036-.061a285.427 285.427 0 0 1 6.15-12.61l.088-.174c.22-.42.441-.867.67-1.287.23-.446.477-.875.795-1.225a2.928 2.928 0 0 1 2.245-1.04 2.95 2.95 0 0 1 2.246 1.04c.309.35.564.78.794 1.225.22.42.441.875.67 1.287l.089.175a345.343 345.343 0 0 1 6.176 12.609l.027.026c.229.455.423.962.644 1.4.14.341.282.612.37.901.168.787.256 1.488.168 2.188zm12.282-1.488a4.46 4.46 0 0 1-1.927-.406 4.426 4.426 0 0 1-1.558-1.195 5.703 5.703 0 0 1-1.412-3.92 6.06 6.06 0 0 1 1.465-4.008 4.673 4.673 0 0 1 1.617-1.21 4.71 4.71 0 0 1 1.983-.417 3.82 3.82 0 0 1 1.851.421 3.783 3.783 0 0 1 1.413 1.259l.089-1.374h2.576v10.57h-2.585l-.088-1.54c-.367.568-.874 1.033-1.474 1.351s-1.27.48-1.95.469zm.67-2.52c.512 0 .962-.14 1.386-.394.388-.28.706-.647.953-1.093.22-.447.335-.98.335-1.575a2.97 2.97 0 0 0-.294-1.5 3 3 0 0 0-1.003-1.16 2.62 2.62 0 0 0-2.753 0c-.388.28-.706.647-.953 1.093a3.483 3.483 0 0 0-.335 1.575 2.97 2.97 0 0 0 .294 1.5 3 3 0 0 0 1.003 1.16c.415.254.865.394 1.368.394zm9.839-11.182c0 .306-.053.586-.194.814a1.65 1.65 0 0 1-.591.56c-.256.14-.53.192-.812.192a1.69 1.69 0 0 1-.82-.192 1.618 1.618 0 0 1-.592-.56 1.582 1.582 0 0 1-.194-.814c0-.315.062-.595.194-.814.141-.262.344-.42.591-.56.256-.14.53-.201.82-.201a1.634 1.634 0 0 1 1.412.753c.129.255.193.537.186.822zm-3 13.387V10.237h2.806v10.57h-2.815l.009-.017zm10.306-7.787v.035c-.132-.062-.309-.088-.441-.114-.177-.035-.318-.035-.486-.035-.785 0-1.376.227-1.764.7-.424.481-.618 1.155-.618 2.021v5.189h-2.815v-10.57h2.586l.088 1.601c.282-.56.617-.98 1.094-1.295a2.753 2.753 0 0 1 1.597-.437c.203 0 .397.017.565.052.088.026.14.026.194.053v2.8zm1.13 7.787V5.897h2.805v5.688a4.443 4.443 0 0 1 1.412-1.208 4.463 4.463 0 0 1 2.883-.35 4.436 4.436 0 0 1 2.482 1.496 5.702 5.702 0 0 1 1.411 3.929 6.06 6.06 0 0 1-1.464 4.008 4.673 4.673 0 0 1-1.618 1.21 4.708 4.708 0 0 1-1.982.417c-.644.018-1.28-.127-1.852-.421s-1.057-.727-1.413-1.259l-.088 1.374-2.577.026v-.017zm5.426-2.205c.503 0 .953-.14 1.376-.394.388-.28.706-.647.953-1.093.23-.447.335-.98.335-1.575 0-.587-.106-1.12-.335-1.567a3.29 3.29 0 0 0-.953-1.093 2.62 2.62 0 0 0-2.753 0c-.397.28-.706.647-.962 1.093a3.482 3.482 0 0 0-.335 1.575 2.97 2.97 0 0 0 .295 1.5 3 3 0 0 0 1.002 1.16c.415.254.865.394 1.377.394zm6.626 2.214v-10.57h2.585l.089 1.374a3.482 3.482 0 0 1 1.335-1.249c.549-.29 1.166-.43 1.788-.405a3.64 3.64 0 0 1 2.01.563c.6.38 1.073.927 1.36 1.572.31.665.477 1.487.477 2.406v6.335H74.98v-5.968c0-.734-.168-1.312-.503-1.74-.336-.42-.794-.648-1.377-.648-.423 0-.794.087-1.12.28a2.192 2.192 0 0 0-.76.814c-.195.362-.293.77-.282 1.18v6.056H68.15zm11.047 0V5.888h2.815v5.687c.381-.51.877-.925 1.448-1.212s1.203-.438 1.843-.441c.665-.01 1.323.129 1.927.406a4.426 4.426 0 0 1 1.558 1.195 5.72 5.72 0 0 1 1.403 3.92 6.05 6.05 0 0 1-1.464 4.007 4.673 4.673 0 0 1-1.618 1.21 4.71 4.71 0 0 1-1.982.418c-.644.017-1.28-.128-1.852-.422s-1.057-.727-1.413-1.258l-.08 1.374-2.585.026zm5.453-2.214c.512 0 .962-.14 1.377-.394.397-.28.706-.647.961-1.093.221-.447.336-.98.336-1.575a2.97 2.97 0 0 0-.295-1.5 3 3 0 0 0-1.002-1.16 2.62 2.62 0 0 0-2.753 0c-.389.28-.706.647-.953 1.093a3.154 3.154 0 0 0-.336 1.575 2.97 2.97 0 0 0 .295 1.5 3 3 0 0 0 1.002 1.16c.415.254.839.394 1.368.394z" fill="#FF385C"/></g><defs><clipPath id="a"><path transform="translate(.5)" fill="#fff" d="M0 0h90v28H0z"/></clipPath></defs></svg>