<svg fill="none" viewBox="0 0 112 26" xmlns="http://www.w3.org/2000/svg"><g clip-path="url(#a)"><path d="M40.002 9.248v1.473h.045c.53-.789 1.41-1.718 3.362-1.718 1.517 0 2.682.773 3.18 1.94h.046c.426-.59.915-1.037 1.462-1.353.648-.375 1.369-.59 2.277-.59 2.055 0 3.874 1.337 3.874 4.707V20.1h-3.133v-5.946c0-1.708-.616-2.696-1.899-2.696-.939 0-1.621.593-1.881 1.324-.09.25-.132.593-.132.88v6.441H44.07v-6.19c0-1.451-.592-2.458-1.857-2.458-1.012 0-1.646.75-1.906 1.392-.11.274-.146.59-.146.886V20.1h-3.136V9.248h2.977zm30.416 0v2.047h.087c.575-1.565 1.94-2.292 3.14-2.292.3 0 .467.023.71.069v2.842c-.288-.039-.555-.078-.93-.078-1.357 0-2.303.743-2.543 1.907a3.8 3.8 0 0 0-.069.802v5.558h-3.216V9.248h2.821zm8.303-3.596v3.416h2.717v2.765H78.72v4.078c0 1.32.357 1.96 1.417 1.96.5 0 .867-.06 1.185-.134l.042 2.291c-.426.15-1.334.313-2.256.313-1.084 0-1.989-.355-2.54-.906-.63-.63-.922-1.66-.922-3.126V5.652h3.074zM34.842 20.1h-3.119V5.652h3.119V20.1zm-8.317-3.876c0 .199-.017.407-.076.587-.243.753-1.071 1.389-2.104 1.389-.863 0-1.549-.46-1.549-1.435 0-1.49 1.747-1.904 3.733-1.894v1.353h-.004zm3.115-2.598c0-2.461-1.115-4.623-4.89-4.623-1.936 0-3.475.512-4.314.968l.614 1.976c.766-.456 1.989-.831 3.146-.831 1.917-.004 2.229 1.02 2.229 1.675v.157c-4.176-.007-6.813 1.353-6.813 4.124 0 1.691 1.34 3.276 3.676 3.276 1.439 0 2.638-.538 3.358-1.402h.07s.478 1.874 3.105 1.157c-.139-.782-.184-1.613-.184-2.614v-3.863h.003zM3.944 5.652c.323 1.53 1.238 5.969 1.238 5.969.384 1.826.738 3.74 1.005 5.252h.048c.26-1.607.669-3.13 1.106-5.014l1.542-6.207h3.413l1.442 6.367c.377 1.77.679 3.136.918 4.782h.045c.26-1.663.6-3.084.97-4.903l1.386-6.246h3.275L16.274 20.1c-2.585.531-3.576-.446-3.93-1.998a951.84 951.84 0 0 0-1.046-4.512c-.357-1.62-.634-2.761-.828-4.424h-.049c-.277 1.647-.568 2.8-.998 4.42l-1.701 6.517c-2.64.496-3.556-.238-4.062-2.23C3.224 16.17.5 5.657.5 5.657h3.444v-.004zm58.454 10.572c0 .2-.017.408-.076.587-.242.753-1.07 1.389-2.103 1.389-.863 0-1.55-.46-1.55-1.435 0-1.49 1.747-1.903 3.733-1.894v1.353h-.004zm3.116-2.598c0-2.461-1.116-4.623-4.89-4.623-1.937 0-3.476.512-4.314.969l.613 1.975c.766-.456 1.99-.831 3.147-.831 1.913-.003 2.228 1.02 2.228 1.676v.156c-4.172-.007-6.81 1.353-6.81 4.124 0 1.692 1.345 3.276 3.677 3.276 1.435 0 2.637-.538 3.355-1.402h.073s.478 1.875 3.104 1.157c-.138-.782-.183-1.613-.183-2.614v-3.863z" fill="#041E42"/><path d="M94.08 15.124c.307.528.287 1.117-.041 1.385l-5.672 3.918c-.591.337-1.475-.071-1.976-.925-.504-.858-.415-1.815.176-2.152l6.28-2.88c.394-.15.926.126 1.233.654zm7.465 0c.31-.528.839-.8 1.233-.657l6.283 2.88c.59.337.677 1.293.176 2.151-.504.855-1.392 1.26-1.98.926l-5.671-3.918c-.324-.266-.35-.858-.041-1.382zm-3.734 2.124c.618 0 1.126.313 1.195.725l.611 6.801c0 .674-.798 1.226-1.803 1.226-1.002 0-1.803-.552-1.803-1.226l.608-6.8c.069-.413.577-.726 1.192-.726zm3.775-7.754 5.672-3.922c.587-.337 1.475.068 1.979.926.5.858.415 1.815-.176 2.152l-6.283 2.883c-.394.143-.926-.13-1.233-.657-.308-.528-.283-1.117.04-1.382zm-8.74 2.039L86.568 8.65c-.587-.338-.677-1.294-.176-2.152.5-.858 1.388-1.263 1.976-.926l5.672 3.922c.328.262.348.854.041 1.382-.307.527-.84.8-1.233.657zm3.773-3.506-.608-6.802c0-.674.798-1.225 1.803-1.225s1.803.551 1.803 1.225l-.611 6.802c-.07.408-.577.725-1.195.725-.615 0-1.123-.317-1.192-.725zM110.77 20.4v-.17h.156c.05 0 .086.033.086.084a.083.083 0 0 1-.086.085h-.156zm-.128.31c0 .016.014.033.035.033h.066c.017 0 .034-.017.034-.034v-.194h.107l.087.204c.006.014.017.024.03.024h.08a.033.033 0 0 0 .03-.047 10.055 10.055 0 0 1-.092-.191.188.188 0 0 0 .13-.19c0-.13-.106-.205-.213-.205h-.26c-.016 0-.034.017-.034.034v.565zm-.28-.283c0-.276.229-.5.508-.5.28 0 .508.22.508.5 0 .275-.224.5-.508.5a.502.502 0 0 1-.507-.5zm-.12 0c0 .34.279.62.628.62.346 0 .629-.28.629-.62s-.283-.62-.63-.62a.624.624 0 0 0-.627.62z" fill="#FFC124"/></g><defs><clipPath id="a"><path transform="translate(.5)" fill="#fff" d="M0 0h111v26H0z"/></clipPath></defs></svg>