<svg fill="none" viewBox="0 0 123 26" xmlns="http://www.w3.org/2000/svg"><g clip-path="url(#a)"><path d="m43.564 14.975-.727 2.056h-.06a14.582 14.582 0 0 0-.708-2.016L38.171 5.24h-3.818v15.58h2.525v-9.614c0-.604 0-1.29-.02-2.136-.02-.423-.06-.746-.08-.988h.06c.121.605.262 1.048.363 1.33l4.686 11.367h1.778l4.646-11.468c.1-.262.202-.786.303-1.23h.06c-.06 1.15-.1 2.178-.121 2.803v9.876h2.686V5.2h-3.676l-3.999 9.775zm10.22-5.381h2.626V20.76h-2.626V9.594zm1.333-4.717c-.444 0-.808.162-1.11.444a1.429 1.429 0 0 0-.465 1.088c0 .423.161.786.464 1.068s.667.424 1.111.424.828-.162 1.111-.424c.303-.282.465-.645.465-1.068 0-.423-.162-.786-.465-1.088-.263-.282-.646-.444-1.11-.444zm10.604 4.616c-.485-.101-.99-.161-1.474-.161-1.192 0-2.283.262-3.192.786-.909.524-1.636 1.25-2.1 2.156-.485.927-.728 1.996-.728 3.225 0 1.068.243 2.015.707 2.882.465.847 1.111 1.532 1.98 1.995.828.464 1.797.706 2.888.706 1.252 0 2.323-.262 3.171-.746l.02-.02v-2.419l-.1.081a4.515 4.515 0 0 1-1.273.665c-.464.161-.889.242-1.252.242-1.05 0-1.879-.302-2.464-.967-.606-.645-.91-1.532-.91-2.64 0-1.15.304-2.057.93-2.722.626-.665 1.454-1.007 2.464-1.007.848 0 1.717.282 2.505.846l.1.08V9.917l-.02-.02c-.343-.141-.727-.302-1.252-.403zm8.665-.08c-.646 0-1.252.2-1.777.624-.444.363-.747.887-1.01 1.512h-.02V9.594h-2.626V20.76h2.626v-5.704c0-.968.202-1.774.646-2.358.444-.605 1.01-.907 1.697-.907.242 0 .485.06.788.1.282.081.484.162.626.262l.1.081v-2.62l-.06-.02c-.182-.121-.545-.182-.99-.182zm7.15-.061c-1.837 0-3.312.544-4.342 1.612-1.05 1.068-1.555 2.54-1.555 4.394 0 1.733.525 3.144 1.535 4.172 1.01 1.008 2.383 1.532 4.1 1.532 1.798 0 3.232-.544 4.262-1.633 1.05-1.088 1.555-2.54 1.555-4.333 0-1.774-.484-3.185-1.474-4.212-.95-1.028-2.343-1.532-4.08-1.532zm2.101 8.586c-.484.625-1.252.927-2.201.927-.95 0-1.717-.302-2.263-.967-.545-.625-.807-1.532-.807-2.681 0-1.19.282-2.096.807-2.741.546-.645 1.293-.968 2.243-.968.929 0 1.656.303 2.18.927.526.625.809 1.532.809 2.721-.04 1.21-.263 2.157-.768 2.782zm9.312-3.709c-.828-.342-1.353-.604-1.596-.826-.202-.202-.303-.484-.303-.847 0-.302.121-.604.424-.806.303-.201.647-.302 1.152-.302.444 0 .909.08 1.353.201.444.121.848.303 1.172.545l.1.08V9.815l-.06-.02a7.3 7.3 0 0 0-1.192-.342c-.484-.081-.929-.121-1.292-.121-1.253 0-2.283.302-3.09.967-.809.625-1.193 1.471-1.193 2.459 0 .524.081.988.263 1.37.182.383.444.746.808 1.049.364.282.889.604 1.616.907.606.262 1.07.463 1.353.624.283.162.465.343.606.484.101.161.162.363.162.625 0 .746-.566 1.108-1.717 1.108-.445 0-.91-.08-1.454-.262a5.625 5.625 0 0 1-1.475-.745l-.101-.081v2.56l.06.02c.384.181.849.302 1.415.443.565.101 1.07.182 1.514.182 1.354 0 2.465-.303 3.252-.968.808-.645 1.233-1.471 1.233-2.54 0-.745-.202-1.41-.647-1.914a8.195 8.195 0 0 0-2.363-1.39zm9.938-4.877c-1.838 0-3.313.544-4.343 1.612-1.03 1.068-1.555 2.54-1.555 4.394 0 1.733.525 3.144 1.535 4.172 1.01 1.008 2.384 1.532 4.1 1.532 1.798 0 3.232-.544 4.262-1.633 1.05-1.088 1.556-2.54 1.556-4.333 0-1.774-.485-3.185-1.475-4.212-.95-1.028-2.343-1.532-4.08-1.532zm2.08 8.586c-.484.625-1.252.927-2.201.927-.97 0-1.717-.302-2.262-.967-.546-.625-.809-1.532-.809-2.681 0-1.19.283-2.096.809-2.741.545-.645 1.292-.968 2.242-.968.909 0 1.656.303 2.18.927s.809 1.532.809 2.721c0 1.21-.263 2.157-.767 2.782zm17.513-6.188V9.594h-2.646V6.288l-.081.02-2.505.746-.06.02v2.52h-3.96V8.183c0-.645.162-1.149.445-1.471s.707-.484 1.232-.484c.364 0 .748.08 1.172.262l.1.06V4.273l-.06-.02c-.363-.121-.848-.202-1.474-.202-.788 0-1.475.181-2.101.484a3.498 3.498 0 0 0-1.434 1.43c-.343.605-.525 1.29-.525 2.077v1.552h-1.838v2.136h1.838v9.03h2.646v-9.01h3.959v5.745c0 2.358 1.11 3.547 3.333 3.547.363 0 .747-.06 1.11-.121.384-.08.667-.182.829-.262l.02-.02v-2.157l-.101.08c-.162.102-.303.182-.546.243-.202.06-.383.08-.525.08-.525 0-.888-.12-1.151-.423-.242-.282-.364-.746-.364-1.431v-5.28h2.687z" fill="#737373"/><path d="M.5 0h12.382v12.355H.5V0Z" fill="#F25022"/><path d="M14.174 0h12.382v12.355H14.174V0Z" fill="#7FBA00"/><path d="M.5 13.645h12.382V26H.5V13.645Z" fill="#00A4EF"/><path d="M14.174 13.645h12.382V26H14.174V13.645Z" fill="#FFB900"/></g><defs><clipPath id="a"><path transform="translate(.5)" fill="#fff" d="M0 0h122v26H0z"/></clipPath></defs></svg>