<svg fill="none" viewBox="0 0 85 24" xmlns="http://www.w3.org/2000/svg"><g clip-path="url(#a)"><path d="M9.597 3.973v6.77H3.429v-6.77H.5v16.16h2.928v-6.55h6.169v6.55h2.928V3.973H9.597zM21.897 14.909c0 .648-.255 1.269-.71 1.727a2.413 2.413 0 0 1-3.426 0 2.452 2.452 0 0 1-.71-1.727V7.987h-2.777v6.922c0 1.389.547 2.72 1.522 3.703.974.982 2.295 1.534 3.673 1.534s2.7-.552 3.674-1.534a5.258 5.258 0 0 0 1.522-3.703V7.987h-2.768v6.922zM42.479 8.7c0-1.418.931-1.868 1.951-1.868.822 0 1.909.63 2.619 1.396l1.82-2.161c-.909-1.238-2.751-2.094-4.26-2.094-3.012 0-5.192 1.779-5.192 4.728 0 5.47 6.635 3.735 6.635 6.797 0 .944-.91 1.779-1.952 1.779-1.643 0-2.175-.81-2.93-1.666l-2.018 2.115c1.291 1.598 2.884 2.41 4.792 2.41 2.862 0 5.165-1.8 5.165-4.615 0-6.074-6.634-4.187-6.634-6.82M83.523 17.551c-1.641 0-2.108-.716-2.108-1.812v-4.852h2.551V8.428h-2.55V5.184l-2.817 1.274v9.884c0 2.528 1.73 3.802 4.103 3.802.373.007.745-.023 1.11-.09l.688-2.55c-.31.022-.666.044-.977.044M32.471 8.069c-1.376 0-2.336.402-3.264 1.32v-5.32h-2.782v9.86c0 3.69 2.647 6.218 5.621 6.218 3.3 0 6.203-2.572 6.203-6.038 0-3.421-2.672-6.04-5.778-6.04zm-.017 9.257c-.625 0-1.235-.187-1.754-.537s-.924-.846-1.163-1.427a3.204 3.204 0 0 1 .685-3.468 3.14 3.14 0 0 1 4.857.482 3.2 3.2 0 0 1-.393 4.018 3.144 3.144 0 0 1-2.232.932zM62.679 13.962c0-3.47-2.897-6.038-6.203-6.038-2.974 0-5.621 2.528-5.621 6.219v9.864h2.782v-5.326c.927.917 1.888 1.32 3.263 1.32 3.106 0 5.778-2.616 5.778-6.039h.001zm-2.634-.035a3.2 3.2 0 0 1-.532 1.768c-.347.523-.84.931-1.417 1.172a3.133 3.133 0 0 1-3.44-.69 3.204 3.204 0 0 1-.684-3.467c.239-.582.643-1.079 1.162-1.428s1.13-.536 1.754-.536c.837 0 1.64.335 2.232.931s.925 1.407.925 2.25z" fill="#33475B"/><path d="M71.667 7.788V4.97c.37-.174.682-.45.902-.797.22-.346.337-.748.34-1.159V2.95c0-.575-.228-1.127-.631-1.534s-.951-.635-1.522-.635h-.065c-.57 0-1.118.229-1.522.635s-.63.959-.63 1.534v.065c.002.411.12.813.34 1.16.22.346.532.622.901.796v2.817a6.072 6.072 0 0 0-2.898 1.286l-7.665-6.018c.054-.199.083-.403.086-.609.001-.483-.14-.956-.406-1.359A2.43 2.43 0 0 0 57.81.186a2.407 2.407 0 0 0-2.644.526 2.462 2.462 0 0 0-.53 2.663c.184.447.494.829.893 1.098s.867.413 1.347.414c.419-.002.83-.115 1.193-.327l7.549 5.92a6.198 6.198 0 0 0 .093 6.941l-2.296 2.314a1.96 1.96 0 0 0-.573-.094c-.394 0-.78.118-1.106.339a2.015 2.015 0 0 0-.301 3.088 1.987 1.987 0 0 0 2.17.435c.363-.151.674-.408.893-.738s.336-.718.336-1.115a1.996 1.996 0 0 0-.093-.579l2.272-2.289c.74.575 1.601.97 2.517 1.158s1.862.16 2.767-.078a6.108 6.108 0 0 0 2.45-1.297 6.17 6.17 0 0 0 1.633-2.252 6.214 6.214 0 0 0-.283-5.427 6.155 6.155 0 0 0-1.859-2.067 6.097 6.097 0 0 0-2.571-1.031zm-.941 9.264c-.621 0-1.229-.186-1.745-.535s-.919-.843-1.156-1.422a3.191 3.191 0 0 1 .682-3.45c.44-.443 1-.744 1.609-.866a3.119 3.119 0 0 1 1.815.18c.574.24 1.065.645 1.41 1.166a3.185 3.185 0 0 1-.39 3.998 3.13 3.13 0 0 1-2.222.928" fill="#FF7A59"/></g><defs><clipPath id="a"><path transform="translate(.5)" fill="#fff" d="M0 0h84v24H0z"/></clipPath></defs></svg>