<svg fill="none" viewBox="0 0 81 24" xmlns="http://www.w3.org/2000/svg"><g clip-path="url(#a)"><path d="m59.991 23.282 6.672-7.39-6.672-7.39h7.04l3.304 3.59 3.182-3.59h6.793l-6.64 7.36 6.731 7.42h-7.068l-3.274-3.62-3.244 3.62h-6.824zM59.991 5.19h-7.556v3.312h7.556v4.993h-7.556v4.583h7.556v5.204h-13.11V0h13.11v5.189z" fill="#f60"/><path d="M41.351 0v9.528h-.06c-1.225-1.387-2.755-1.87-4.53-1.87-3.636 0-6.375 2.437-7.336 5.658-1.096-3.549-3.924-5.724-8.117-5.724-3.404 0-6.093 1.507-7.496 3.962V8.502H6.774V5.19h7.68V0H.5v23.282h6.274v-9.787h6.253a9.148 9.148 0 0 0-.286 2.301c0 4.857 3.764 8.264 8.568 8.264 4.039 0 6.7-1.869 8.109-5.277H24.04c-.727 1.024-1.278 1.328-2.732 1.328-1.686 0-3.14-1.45-3.14-3.169h10.948c.475 3.858 3.523 7.184 7.707 7.184a5.38 5.38 0 0 0 4.467-2.352h.06v1.507h5.531V.001h-5.53zM18.344 13.565c.349-1.479 1.512-2.445 2.965-2.445 1.599 0 2.703.936 2.994 2.445h-5.959zm19.651 6.172c-2.039 0-3.305-1.872-3.305-3.827 0-2.09 1.102-4.1 3.305-4.1 2.285 0 3.195 2.01 3.195 4.1 0 1.981-.965 3.827-3.195 3.827z" fill="#652C8F"/></g><defs><clipPath id="a"><path transform="translate(.5)" fill="#fff" d="M0 0h80v24H0z"/></clipPath></defs></svg>